<?xml version="1.0" encoding="UTF-8" standalone="no"?>
<svg
   xmlns:dc="http://purl.org/dc/elements/1.1/"
   xmlns:cc="http://creativecommons.org/ns#"
   xmlns:rdf="http://www.w3.org/1999/02/22-rdf-syntax-ns#"
   xmlns:svg="http://www.w3.org/2000/svg"
   xmlns="http://www.w3.org/2000/svg"
   xmlns:sodipodi="http://sodipodi.sourceforge.net/DTD/sodipodi-0.dtd"
   xmlns:inkscape="http://www.inkscape.org/namespaces/inkscape"
   viewBox="0 0 512 512"
   style="height: 512px; width: 512px;"
   version="1.1"
   id="svg845"
   sodipodi:docname="narrow.svg"
   inkscape:version="0.92.4 (5da689c313, 2019-01-14)">
  <metadata
     id="metadata851">
    <rdf:RDF>
      <cc:Work
         rdf:about="">
        <dc:format>image/svg+xml</dc:format>
        <dc:type
           rdf:resource="http://purl.org/dc/dcmitype/StillImage" />
        <dc:title></dc:title>
      </cc:Work>
    </rdf:RDF>
  </metadata>
  <defs
     id="defs849" />
  <sodipodi:namedview
     pagecolor="#ffffff"
     bordercolor="#666666"
     borderopacity="1"
     objecttolerance="10"
     gridtolerance="10"
     guidetolerance="10"
     inkscape:pageopacity="0"
     inkscape:pageshadow="2"
     inkscape:window-width="1920"
     inkscape:window-height="1001"
     id="namedview847"
     showgrid="false"
     inkscape:zoom="1.3037281"
     inkscape:cx="256"
     inkscape:cy="256"
     inkscape:window-x="-9"
     inkscape:window-y="-9"
     inkscape:window-maximized="1"
     inkscape:current-layer="g843"
     showguides="true"
     inkscape:guide-bbox="true">
    <sodipodi:guide
       position="256.95541,287.63666"
       orientation="1,0"
       id="guide1398"
       inkscape:locked="false" />
  </sodipodi:namedview>
  <g
     class=""
     transform="translate(0,0)"
     style="touch-action:none;fill:#ffffff"
     id="g843">
    <path
       d="m 188.563,11.875 c -0.782,5.333 -2.006,8.77 -3.282,11.063 -2.115,3.802 -4.57,5.415 -8.968,8.562 -4.396,3.147 -10.553,7.908 -14.656,16.22 -4.103,8.31 -6.28,19.467 -6.28,36.28 V 449.406 C 155.375,481.746 181.66,508 214,508 h 83.47 c 32.338,0 58.592,-26.255 58.592,-58.594 V 84 c 0,-17.668 -2.004,-29.225 -5.812,-37.813 -3.808,-8.587 -9.777,-13.66 -14.094,-16.812 -4.317,-3.153 -6.54,-4.544 -8.437,-7.906 -1.096,-1.94 -2.172,-4.94 -2.908,-9.595 H 305.97 c 0.916,7.868 2.717,13.91 5.467,18.78 4.132,7.32 9.966,11.095 13.688,13.814 3.722,2.718 5.81,4.27 8.03,9.28 2.223,5.01 4.22,14.06 4.22,30.25 v 365.406 c 0,22.355 -17.55,39.906 -39.906,39.906 H 214 c -22.355,0 -39.938,-17.55 -39.938,-39.906 V 84 c 0,-15.155 2.098,-23.42 4.376,-28.03 2.277,-4.614 4.64,-6.31 8.75,-9.25 4.11,-2.943 10.142,-7.028 14.406,-14.69 2.898,-5.206 4.827,-11.705 5.78,-20.155 h -18.81 z"
       id="path841"
       style="fill:#ffffff;fill-opacity:1"
       inkscape:connector-curvature="0"
       sodipodi:nodetypes="ccccscssssccccccccsssssscccccc" />
  </g>
</svg>
