<?xml version="1.0" encoding="UTF-8" standalone="no"?>
<svg
   xmlns:dc="http://purl.org/dc/elements/1.1/"
   xmlns:cc="http://creativecommons.org/ns#"
   xmlns:rdf="http://www.w3.org/1999/02/22-rdf-syntax-ns#"
   xmlns:svg="http://www.w3.org/2000/svg"
   xmlns="http://www.w3.org/2000/svg"
   xmlns:sodipodi="http://sodipodi.sourceforge.net/DTD/sodipodi-0.dtd"
   xmlns:inkscape="http://www.inkscape.org/namespaces/inkscape"
   viewBox="0 0 512 512"
   style="height: 512px; width: 512px;"
   version="1.1"
   id="svg4920"
   sodipodi:docname="candle-holder.svg"
   inkscape:version="0.92.4 (5da689c313, 2019-01-14)">
  <metadata
     id="metadata4926">
    <rdf:RDF>
      <cc:Work
         rdf:about="">
        <dc:format>image/svg+xml</dc:format>
        <dc:type
           rdf:resource="http://purl.org/dc/dcmitype/StillImage" />
      </cc:Work>
    </rdf:RDF>
  </metadata>
  <defs
     id="defs4924" />
  <sodipodi:namedview
     pagecolor="#ffffff"
     bordercolor="#666666"
     borderopacity="1"
     objecttolerance="10"
     gridtolerance="10"
     guidetolerance="10"
     inkscape:pageopacity="0"
     inkscape:pageshadow="2"
     inkscape:window-width="1920"
     inkscape:window-height="1001"
     id="namedview4922"
     showgrid="false"
     inkscape:zoom="0.921875"
     inkscape:cx="201.68789"
     inkscape:cy="256.11677"
     inkscape:window-x="-9"
     inkscape:window-y="-9"
     inkscape:window-maximized="1"
     inkscape:current-layer="g4918" />
  <g
     class=""
     transform="translate(0,0)"
     style="touch-action: none;"
     id="g4918">
    <path
       style="fill:#ffffff"
       d="m 245.562,154.688 v 11.843 l -0.187,-3.905 c 0.774,26.386 -17.415,28.686 -17.125,48.156 0.227,15.365 12.172,20.084 17.313,12.69 v 145.75 h 97.156 v -83.5 c 6.51,7.5 19.83,1.552 20.092,-16.22 0.31,-20.772 -16.87,-25.295 -20.093,-48.22 v -66.593 c -32.392,10.276 -65.8,9.795 -97.158,0 z"
       id="path5473" />
    <path
       style="fill:#ffffff"
       d="m 113.625,285.344 c -19.435,0.005 -37.23,10.322 -48.094,26.125 -14.485,21.068 -17.477,52.02 -0.81,81.405 7.814,13.78 4.407,25.93 -2.126,32.28 -6.533,6.352 -15.494,8.594 -27.563,-2.53 l -12.655,13.72 c 17.56,16.183 40.3,14.805 53.25,2.217 12.95,-12.587 16.81,-34.69 5.344,-54.906 -13.474,-23.753 -10.43,-46.47 -0.032,-61.594 10.398,-15.124 27.313,-22.524 45.968,-15.593 23.738,8.82 34.46,29.795 32.813,48.124 -1.355,15.062 -9.978,28.618 -30.095,33.437 h -25.688 c 3.313,6.736 7.145,13.262 11.407,19.533 l 0.03,1 c 0.213,-0.006 0.415,-0.025 0.626,-0.032 10.88,15.772 24.687,29.972 41.063,42.158 H 443 c 23.286,-17.327 41.907,-38.453 53.75,-62.657 H 164.28 c 8.205,-9.01 13.02,-20.162 14.064,-31.78 2.414,-26.863 -13.754,-55.694 -44.938,-67.28 -6.646,-2.47 -13.303,-3.628 -19.78,-3.626 z"
       id="path4916" />
  </g>
</svg>
