<?xml version="1.0" encoding="UTF-8" standalone="no"?>
<svg
   xmlns:dc="http://purl.org/dc/elements/1.1/"
   xmlns:cc="http://creativecommons.org/ns#"
   xmlns:rdf="http://www.w3.org/1999/02/22-rdf-syntax-ns#"
   xmlns:svg="http://www.w3.org/2000/svg"
   xmlns="http://www.w3.org/2000/svg"
   xmlns:sodipodi="http://sodipodi.sourceforge.net/DTD/sodipodi-0.dtd"
   xmlns:inkscape="http://www.inkscape.org/namespaces/inkscape"
   viewBox="0 0 512 512"
   style="height: 512px; width: 512px;"
   version="1.1"
   id="svg4322"
   sodipodi:docname="note.svg"
   inkscape:version="0.92.4 (5da689c313, 2019-01-14)">
  <metadata
     id="metadata4328">
    <rdf:RDF>
      <cc:Work
         rdf:about="">
        <dc:format>image/svg+xml</dc:format>
        <dc:type
           rdf:resource="http://purl.org/dc/dcmitype/StillImage" />
      </cc:Work>
    </rdf:RDF>
  </metadata>
  <defs
     id="defs4326" />
  <sodipodi:namedview
     pagecolor="#ffffff"
     bordercolor="#666666"
     borderopacity="1"
     objecttolerance="10"
     gridtolerance="10"
     guidetolerance="10"
     inkscape:pageopacity="0"
     inkscape:pageshadow="2"
     inkscape:window-width="1920"
     inkscape:window-height="1001"
     id="namedview4324"
     showgrid="false"
     inkscape:zoom="1.3037281"
     inkscape:cx="295.50737"
     inkscape:cy="276.11294"
     inkscape:window-x="-9"
     inkscape:window-y="-9"
     inkscape:window-maximized="1"
     inkscape:current-layer="g4320" />
  <g
     class=""
     transform="translate(0,0)"
     style="touch-action:none;fill:#000000"
     id="g4320">
    <path
       id="path4318"
       style="fill:#ffffff"
       d="m 112.24,420.114 c -1.07,1.802 -0.466,8.714 1.303,12.939 3.72,8.887 6.028,8.437 8.232,8.447 8.877,2.102 17.347,0.269 25.85,-1.025 -2.053,-4.123 -5.283,-8.704 -10.283,-12.113 -4.12,-2.809 -20.675,-15.634 -25.102,-8.248 z m 39.785,-2.787 c 10.05,9.261 17.925,22.065 15.078,36.718 -2.074,10.682 -10.422,17.606 -19.814,23.106 -9.392,5.5 -20.775,9.866 -32.512,13.914 a 1395.68,1395.68 0 0 1 -12.238,4.154 l 301.387,-7.672 c 7.772,-0.45 14.658,-5.66 19.734,-13.406 5.082,-7.754 7.477,-17.817 6.895,-23.236 -0.583,-5.419 -4.857,-14.677 -10.973,-21.48 -6.116,-6.805 -13.547,-10.824 -19.025,-10.618 l -0.198,0.008 z M 130.545,51.211 c -15.366,8.213 -29.102,17.702 -40.99,28.707 16.167,1.495 33.74,3.063 48.64,9.95 3.139,-13.836 -3.247,-26.896 -7.65,-38.657 z M 308.79742,46.444484 C 220.83121,43.227752 202.95033,48.574667 149.068,49.448 c 10.403,24.036 7.492,47.197 -4.388,65.648 -18.658,-14.237 -44.341,-15.374 -63.407,-17.717 -14.06,123.827 -6.22,225.967 -6.271,342.149 -0.004,9.469 -1.157,23.12 4.826,32.947 1.887,3.1 4.37,5.928 8.129,8.342 17.708,-6.206 41.405,-12.44 54.87,-22.274 -6.951,-0.825 -14.755,0.952 -21.138,0.955 -8.458,-0.04 -19.144,-6.11 -24.748,-19.496 -2.919,-6.973 -6.636,-18.193 -0.181,-29.072 2.838,-4.785 9.383,-10.302 14.26,-10.328 94.651,0.504 191.392,-0.32 279.568,0.154 -5.523,-76.851 -10.013,-197.43326 -5.53,-275.64526 1.7549,-24.50007 5.53078,-49.289663 14.35567,-61.293696 -15.4489,-3.718157 -62.07273,-17.462278 -90.61625,-17.37256 z" />
  </g>
</svg>
